<?xml version="1.0" encoding="UTF-8"?>
<svg id="Capa_1" xmlns="http://www.w3.org/2000/svg" version="1.1" viewBox="0 0 91 64">
  <!-- Generator: Adobe Illustrator 29.0.0, SVG Export Plug-In . SVG Version: 2.1.0 Build 186)  -->
  <defs>
    <style>
      .st0 {
        fill: #fff;
      }

      .st1, .st2 {
        fill: #ef3331;
      }

      .st2 {
        fill-rule: evenodd;
      }
    </style>
  </defs>
  <path class="st1" d="M85.58,59.7H21.92c-4.2,0-7.62-3.41-7.62-7.61V12.05h0c0-1.91,1.56-3.46,3.47-3.46h38.38l5.33-7.97c.13-.2.35-.31.58-.31h16.61c1.91,0,3.47,1.55,3.47,3.46v51.1c0,.92.36,1.78,1.01,2.43.49.49,1.1.81,1.76.94l1.45-51.78c.01-.38.32-.68.7-.68,2.01,0,3.64,1.56,3.64,3.47v45.62c0,2.67-2.29,4.85-5.11,4.85h0ZM15.7,12.05v40.05c0,3.42,2.79,6.2,6.22,6.2h60.25c-.89-.88-1.44-2.09-1.44-3.44V3.76c0-1.14-.93-2.06-2.06-2.06h-16.24l-5.33,7.97c-.13.2-.35.31-.58.31H17.77c-1.14,0-2.06.92-2.06,2.06h0ZM87.74,7.27l-1.43,50.96c1.7-.31,2.98-1.71,2.98-3.38V9.24c0-.92-.66-1.7-1.56-1.96Z"/>
  <path class="st2" d="M41.28,27.56v3.2c0,1.06.84,1.92,1.88,1.92h3.13M48.8,32.68v-.22c0-.68-.26-1.33-.73-1.81l-4.79-4.9c-.47-.48-1.1-.75-1.77-.75h-13.99c-1.39,0-2.51,1.15-2.51,2.56v26.89c0,1.41,1.12,2.56,2.51,2.56h18.78c1.38,0,2.51-1.15,2.51-2.56v-8.96"/>
  <path class="st0" d="M37.52,53.57h-3.76c-.22,0-.4-.18-.4-.4v-3.84c0-.1.04-.21.11-.28l11.9-12.17h0l1.33-1.36c.94-.91,2.37-.89,3.23,0l1.1,1.12c.89.92.89,2.36,0,3.28l-1.33,1.36h0l-11.9,12.16c-.08.08-.18.12-.29.12ZM34.17,52.77h3.19l11.51-11.76-3.2-3.27-11.5,11.75v3.28ZM46.23,37.17l3.2,3.27,1.04-1.06c.59-.6.59-1.55,0-2.16l-1.1-1.12c-.56-.58-1.48-.59-2.05-.03l-1.09,1.11Z"/>
  <path class="st0" d="M37.52,45.89h-7.51c-.22,0-.4-.18-.4-.4s.18-.4.4-.4h7.51c.22,0,.4.18.4.4s-.18.4-.4.4ZM41.28,42.05h-11.27c-.22,0-.4-.18-.4-.4s.18-.4.4-.4h11.27c.22,0,.4.18.4.4s-.18.4-.4.4ZM42.53,38.21h-12.52c-.22,0-.4-.18-.4-.4s.18-.4.4-.4h12.52c.22,0,.4.18.4.4s-.18.4-.4.4Z"/>
  <g>
    <path class="st2" d="M32.37,59.43c0,1.97-1.61,3.57-3.6,3.57H3.6c-1.99,0-3.6-1.6-3.6-3.57v-17.86c0-1.97,1.61-3.57,3.6-3.57h25.17c1.99,0,3.6,1.6,3.6,3.57v17.86ZM10.79,44.55c0,1.65-1.35,2.98-3,2.98-1.65,0-2.99-1.33-3-2.98,0-1.65,1.35-2.98,3-2.98h0c1.65,0,2.99,1.33,3,2.98h0Z"/>
    <path class="st0" d="M26.79,58.98c-.09,0-.17-.03-.24-.1l-6.81-7.21-2.7,2.86c-.12.13-.35.13-.47,0l-3.88-4.1-7.99,8.45c-.12.13-.33.14-.46.01-.13-.12-.14-.33-.01-.46l8.22-8.7c.12-.13.35-.13.47,0l3.88,4.1,2.7-2.86c.12-.13.35-.13.47,0l7.05,7.46c.12.13.12.34-.01.46-.06.06-.14.09-.22.09Z"/>
  </g>
</svg>