<?xml version="1.0" encoding="UTF-8"?>
<svg id="Capa_1" xmlns="http://www.w3.org/2000/svg" version="1.1" viewBox="0 0 70 88">
  <!-- Generator: Adobe Illustrator 29.0.0, SVG Export Plug-In . SVG Version: 2.1.0 Build 186)  -->
  <defs>
    <style>
      .st0 {
        fill: #ef3331;
      }
    </style>
  </defs>
  <path class="st0" d="M31.47,59.34l-15.64-15.95,6.64-6.78,9,9.18,16.11-16.43,6.65,6.78-22.75,23.2ZM20.12,43.39l11.35,11.58,18.46-18.83-2.35-2.4-16.11,16.43-9-9.18-2.35,2.4Z"/>
  <path class="st0" d="M34.71,87.74l-.72-.39c-.73-.39-17.89-9.61-25.32-16.93C3.4,65.22.38,57.94.38,50.44V8.32h12.12c5.21,0,10.33-1.15,14.81-3.33,2.5-1.2,4.65-2.58,6.39-4.08l1-.87,1,.87c1.74,1.51,3.89,2.88,6.39,4.08,4.49,2.18,9.61,3.33,14.82,3.33h12.12v42.12c0,7.5-3.02,14.78-8.28,19.98-7.43,7.32-24.59,16.55-25.32,16.93l-.72.39ZM3.45,11.38v39.06c0,6.69,2.69,13.18,7.37,17.8,6.28,6.19,20.52,14.17,23.89,16.02,3.37-1.85,17.61-9.83,23.89-16.02,4.68-4.63,7.37-11.11,7.37-17.8V11.38h-9.06c-5.67,0-11.26-1.26-16.15-3.64-2.28-1.1-4.31-2.34-6.05-3.7-1.74,1.36-3.77,2.6-6.06,3.7-4.89,2.38-10.47,3.64-16.15,3.64H3.45Z"/>
  <path class="st0" d="M34.71,78.16l-.76-.44c-4.25-2.44-14.65-8.63-19.33-13.24-3.6-3.56-5.67-8.55-5.67-13.7V17.39h3.56c6.47,0,12.87-1.44,18.5-4.18,1-.48,1.99-1,2.94-1.56l.77-.45.77.45c.95.55,1.94,1.08,2.96,1.57,5.61,2.73,12,4.17,18.48,4.17h3.56v33.39c0,5.15-2.07,10.14-5.68,13.71-4.69,4.62-15.08,10.8-19.32,13.24l-.76.44ZM12.01,20.46v30.32c0,4.34,1.73,8.54,4.76,11.52,4.24,4.18,14.01,10.04,17.94,12.33,3.93-2.28,13.69-8.13,17.93-12.32,3.03-2.99,4.76-7.19,4.76-11.52v-30.32h-.49c-6.94,0-13.79-1.55-19.81-4.47-.81-.39-1.62-.81-2.4-1.24-.78.43-1.57.84-2.38,1.23-6.04,2.93-12.9,4.48-19.83,4.48h-.49Z"/>
</svg>