<?xml version="1.0" encoding="UTF-8"?>
<svg id="Capa_1" xmlns="http://www.w3.org/2000/svg" version="1.1" viewBox="0 0 83 78">
  <!-- Generator: Adobe Illustrator 29.0.0, SVG Export Plug-In . SVG Version: 2.1.0 Build 186)  -->
  <defs>
    <style>
      .st0 {
        fill: #fff;
      }

      .st0, .st1 {
        fill-rule: evenodd;
      }

      .st2 {
        fill: #891b1b;
      }

      .st3, .st1 {
        fill: #ef3331;
      }
    </style>
  </defs>
  <path class="st1" d="M2.48,53.47h71.12v-7.98H2.48s0,7.98,0,7.98ZM51.71,65.44h3.94v3.53H20.41v-3.53h3.94c.66,0,1.18-.53,1.18-1.18v-8.43h24.99v8.43c0,.65.53,1.18,1.19,1.18ZM2.48,43.12h71.12V2.95H2.48v40.17h0ZM1.29.58C.63.58.1,1.11.1,1.77v52.88c0,.65.53,1.18,1.18,1.18h21.88v7.24h-3.94c-.66,0-1.18.53-1.18,1.18v5.89c0,.65.53,1.18,1.18,1.18h37.62c.65,0,1.19-.53,1.19-1.18v-5.9c0-.65-.53-1.18-1.19-1.18h-3.94v-7.24h21.88c.65,0,1.19-.53,1.19-1.18V1.77c0-.65-.53-1.18-1.18-1.18H1.29Z"/>
  <path class="st1" d="M36.41,47.92c-.65,0-1.19.53-1.19,1.18,0,.65.53,1.18,1.19,1.18.65,0,1.18-.53,1.18-1.18,0-.65-.53-1.18-1.19-1.18"/>
  <g>
    <g>
      <rect class="st2" x="56.2" y="23.89" width="25.62" height="52.79" rx="2.46" ry="2.46"/>
      <path class="st3" d="M79.36,77.51h-20.7c-1.81,0-3.28-1.47-3.28-3.28V26.35c0-1.81,1.47-3.28,3.28-3.28h20.7c1.81,0,3.28,1.47,3.28,3.28v47.87c0,1.81-1.47,3.28-3.28,3.28ZM58.66,24.71c-.91,0-1.64.74-1.64,1.64v47.87c0,.91.74,1.64,1.64,1.64h20.7c.91,0,1.64-.74,1.64-1.64V26.35c0-.91-.74-1.64-1.64-1.64h-20.7Z"/>
    </g>
    <g>
      <path class="st0" d="M56.11,29.72h25.8v1h-25.8v-1ZM56.11,67.59h25.8v1h-25.8v-1Z"/>
      <path class="st3" d="M82.64,69.31h-27.26v-2.46h27.26v2.46ZM82.64,31.44h-27.26v-2.46h27.26v2.46Z"/>
    </g>
    <path class="st3" d="M68.42,73.28c-.93,0-1.69-.76-1.69-1.69s.76-1.69,1.69-1.69,1.69.76,1.69,1.69-.76,1.69-1.69,1.69ZM68.42,70.91c-.38,0-.68.3-.68.68s.3.68.68.68.68-.3.68-.68-.3-.68-.68-.68Z"/>
  </g>
  <g>
    <path class="st1" d="M45.4,15.97h-.2l-5.24,2.07-5.93-2.07-5.53,1.87c-.2.1-.4.2-.4.49v14.89c0,.3.2.49.49.49h.2l5.24-2.07,5.93,2.07,5.53-1.87c.2-.1.4-.3.4-.49v-14.89c0-.3-.2-.49-.49-.49ZM39.97,30.76l-5.93-2v-11.32l5.93,2v11.32h0Z"/>
    <path class="st0" d="M30.49,15.97c-1.32,0-2.37.92-2.37,2.07,0,1.54,2.37,3.85,2.37,3.85,0,0,2.37-2.31,2.37-3.85,0-1.15-1.05-2.07-2.37-2.07h0ZM30.49,18.93c-.51,0-.91-.36-.91-.82s.4-.82.91-.82.91.36.91.82-.4.82-.91.82Z"/>
  </g>
</svg>