<?xml version="1.0" encoding="UTF-8"?>
<svg id="Capa_1" xmlns="http://www.w3.org/2000/svg" version="1.1" viewBox="0 0 86 71">
  <!-- Generator: Adobe Illustrator 29.0.0, SVG Export Plug-In . SVG Version: 2.1.0 Build 186)  -->
  <defs>
    <style>
      .st0 {
        fill: #ef3331;
      }
    </style>
  </defs>
  <path class="st0" d="M32.88,64.71C15.16,64.71.75,50.31.75,32.63S15.16.55,32.88.55c8.72,0,17.11,3.57,23.15,9.83l3.69-3.68c.25-.25.66-.25.92,0l4.31,4.3c.12.12.19.29.19.46s-.07.34-.19.46l-4.4,4.39c2.93,4.96,4.46,10.58,4.46,16.32,0,17.69-14.41,32.08-32.13,32.08ZM32.88,1.85C15.88,1.85,2.05,15.66,2.05,32.63s13.83,30.78,30.83,30.78,30.83-13.81,30.83-30.78c0-5.42-1.42-10.71-4.11-15.37l-3.54,3.53c1.88,3.69,2.86,7.74,2.86,11.84,0,14.33-11.68,26-26.04,26S6.84,46.96,6.84,32.63,18.52,6.63,32.88,6.63h.03c7.1,0,13.91,2.92,18.81,8.05l3.39-3.38c-5.79-6.01-13.86-9.45-22.23-9.45ZM32.91,7.93h-.03c-13.64,0-24.74,11.08-24.74,24.69s11.1,24.69,24.74,24.69,24.74-11.08,24.74-24.69c0-3.77-.87-7.51-2.52-10.87l-19.6,19.57c-.7.7-1.62,1.08-2.61,1.08h0c-.99,0-1.92-.38-2.61-1.08l-13.08-13.06c-.12-.12-.19-.29-.19-.46s.07-.34.19-.46l4.31-4.3c.25-.25.67-.25.92,0l10.47,10.45,17.92-17.89c-4.65-4.88-11.13-7.67-17.89-7.67ZM18.57,27.8l12.62,12.6c.45.45,1.05.7,1.69.7,0,0,0,0,0,0,.64,0,1.24-.25,1.69-.7l19.85-19.81-2.81-3.96-18.28,18.25c-.25.25-.67.25-.92,0l-10.47-10.45-3.39,3.38ZM52.55,15.69l2.8,3.97,3.52-3.51-2.92-3.85-3.4,3.39ZM56.88,11.37l2.92,3.85,3.77-3.76-3.39-3.38-3.3,3.29ZM33.9,54.57c-.36,0-.65-.29-.65-.65v-2.03c0-.36.29-.65.65-.65s.65.29.65.65v2.03c0,.36-.29.65-.65.65ZM54.21,34.29h-2.03c-.36,0-.65-.29-.65-.65s.29-.65.65-.65h2.03c.36,0,.65.29.65.65s-.29.65-.65.65ZM13.59,34.29h-2.03c-.36,0-.65-.29-.65-.65s.29-.65.65-.65h2.03c.36,0,.65.29.65.65s-.29.65-.65.65ZM33.9,14.02c-.36,0-.65-.29-.65-.65v-2.03c0-.36.29-.65.65-.65s.65.29.65.65v2.03c0,.36-.29.65-.65.65Z"/>
  <path class="st0" d="M50.87,45.62c-1.37,0-2.66-.53-3.63-1.5-.97-.97-1.51-2.26-1.51-3.63,0-2.83,2.31-5.14,5.15-5.14h0c1.37,0,2.66.53,3.63,1.5.97.97,1.51,2.26,1.51,3.64h0c0,2.83-2.31,5.14-5.15,5.14h0ZM50.88,36.64h0c-2.12,0-3.85,1.72-3.85,3.84,0,2.12,1.73,3.84,3.84,3.84h0c2.12,0,3.85-1.72,3.85-3.84,0-1.03-.4-1.99-1.13-2.72-.73-.72-1.69-1.12-2.71-1.12Z"/>
  <path class="st0" d="M53.12,70.32h-4.5c-.77,0-1.5-.3-2.05-.85-.55-.55-.85-1.27-.85-2.05v-8.4c-1.28-.29-2.25-1.45-2.25-2.82v-7.04c0-1.54.89-2.96,2.28-3.62,1.2-.56,3.05-1.22,5.12-1.22h0c1.63,0,3.4.42,5.11,1.21,1.4.66,2.29,2.08,2.28,3.62v7.04c0,1.37-.96,2.52-2.25,2.82v8.4c0,.77-.3,1.5-.85,2.05-.55.55-1.27.85-2.05.85ZM48.62,69.02h4.5c.43,0,.83-.17,1.13-.47.3-.3.47-.7.47-1.13v-8.98c0-.36.29-.65.65-.65.88,0,1.6-.71,1.6-1.59v-7.04c0-1.04-.6-2-1.54-2.45-1.07-.5-2.73-1.09-4.56-1.09h0c-1.83,0-3.49.6-4.56,1.09-.93.44-1.54,1.4-1.53,2.44v7.04c0,.88.72,1.59,1.6,1.59.36,0,.65.29.65.65v8.98c0,.88.72,1.59,1.6,1.59h0Z"/>
  <path class="st0" d="M64.36,45.62c-1.37,0-2.66-.53-3.63-1.5-.97-.97-1.51-2.26-1.51-3.63,0-2.84,2.31-5.14,5.15-5.14h0c2.83,0,5.14,2.3,5.14,5.14h0c0,2.84-2.31,5.14-5.15,5.14h0ZM64.37,36.64h0c-2.12,0-3.85,1.72-3.85,3.84,0,1.03.4,1.99,1.13,2.72.72.72,1.69,1.12,2.71,1.12h0c2.12,0,3.85-1.72,3.85-3.84,0-2.12-1.73-3.84-3.84-3.84Z"/>
  <path class="st0" d="M66.61,70.32h-4.5c-.77,0-1.5-.3-2.05-.85-.55-.55-.85-1.27-.85-2.05v-8.4c-.53-.12-1.01-.38-1.4-.77-.55-.55-.85-1.27-.85-2.05v-7.04c0-1.54.89-2.96,2.28-3.62,1.19-.56,3.05-1.22,5.12-1.22h0c1.66,0,3.38.41,5.11,1.21,1.4.66,2.29,2.09,2.28,3.63v7.04c0,1.37-.96,2.53-2.25,2.82v8.4c0,1.6-1.3,2.9-2.9,2.9ZM62.11,69.02h4.5c.88,0,1.6-.71,1.6-1.6v-8.98c0-.17.07-.34.19-.46.12-.12.29-.19.46-.19h0c.88,0,1.6-.71,1.6-1.59v-7.04c0-1.04-.6-2-1.54-2.45-1.07-.5-2.73-1.09-4.56-1.09h0c-1.83,0-3.49.6-4.56,1.09-.93.44-1.54,1.4-1.53,2.44v7.04c0,.43.17.83.47,1.13.3.3.7.47,1.13.47h0c.17,0,.34.07.46.19.12.12.19.29.19.46v8.98c0,.88.72,1.59,1.6,1.59h0Z"/>
  <path class="st0" d="M77.85,45.62c-1.37,0-2.66-.53-3.63-1.5-.97-.97-1.51-2.26-1.51-3.63,0-2.84,2.31-5.14,5.15-5.14h0c1.37,0,2.66.53,3.63,1.5.97.97,1.51,2.26,1.51,3.63h0c0,2.84-2.31,5.14-5.15,5.14h0ZM77.86,36.64h0c-2.12,0-3.85,1.72-3.85,3.84,0,1.03.4,1.99,1.13,2.72.72.72,1.69,1.12,2.71,1.12h0c2.12,0,3.85-1.72,3.85-3.84,0-1.03-.4-1.99-1.13-2.72-.73-.72-1.69-1.12-2.71-1.12Z"/>
  <path class="st0" d="M80.1,70.32h-4.5c-1.6,0-2.9-1.3-2.9-2.89v-8.4c-1.29-.29-2.25-1.45-2.25-2.82v-7.04c0-1.54.89-2.96,2.28-3.62,1.71-.8,3.48-1.22,5.12-1.22h0c1.66,0,3.38.41,5.11,1.21,1.4.66,2.29,2.09,2.28,3.63v7.03c0,1.37-.96,2.53-2.25,2.82v8.4c0,1.6-1.3,2.9-2.9,2.9ZM73.36,57.79c.17,0,.34.07.46.19.12.12.19.29.19.46v8.98c0,.88.72,1.59,1.6,1.59h4.5c.88,0,1.6-.71,1.6-1.6v-8.98c0-.17.07-.34.19-.46.12-.12.29-.19.46-.19h0c.88,0,1.6-.71,1.6-1.59v-7.04c0-1.04-.6-2-1.54-2.45-1.07-.5-2.73-1.09-4.56-1.09h0c-1.83,0-3.49.6-4.56,1.09-.93.44-1.54,1.4-1.53,2.44v7.04c0,.43.17.83.47,1.13.3.3.7.47,1.13.47h0Z"/>
</svg>